# 3ds Max Wavefront OBJ Exporter v0.99 - (c)2007 guruware
# File Created: 16.11.2021 17:41:19

mtllib baño_i.mtl

#
# object Wall001
#

v  41.6740 100.0000 -55.7564
v  41.6554 100.0000 -50.7110
v  41.6740 0.0000 -55.7564
v  41.6554 0.0000 -50.7110
v  36.6554 100.0000 -50.7295
v  36.6554 0.0000 -50.7295
v  36.6287 100.0000 -55.7294
v  36.6287 0.0000 -55.7294
v  41.2363 100.0000 62.8537
v  36.1744 100.0000 62.7720
v  41.2363 0.0000 62.8537
v  36.1744 0.0000 62.7720
v  36.2550 100.0000 57.7727
v  36.2550 0.0000 57.7727
v  41.2550 100.0000 57.7911
v  41.2550 0.0000 57.7911
v  -41.7205 100.0000 61.5156
v  -41.6656 100.0000 56.5414
v  -41.7205 0.0000 61.5156
v  -41.6656 0.0000 56.5414
v  -36.6659 100.0000 56.5965
v  -36.6659 0.0000 56.5965
v  -36.7466 100.0000 61.5959
v  -36.7466 0.0000 61.5959
v  -39.1798 100.0000 -50.3239
v  -39.1798 0.0000 -50.3239
v  -39.2066 0.0000 -55.3239
v  -39.2066 100.0000 -55.3239
v  5.7557 0.0000 57.2807
v  5.7557 70.0504 57.2807
v  38.7860 0.0000 57.8135
v  38.7860 100.0000 57.8135
v  -25.0245 70.0504 56.7843
v  -39.1529 100.0000 56.5564
v  -39.1529 0.0000 56.5564
v  -25.0245 0.0000 56.7843
v  -39.2335 0.0000 61.5558
v  -25.1051 0.0000 61.7836
v  5.6750 0.0000 62.2801
v  38.7053 0.0000 62.8128
v  -25.1051 70.0504 61.7836
v  -39.2335 100.0000 61.5558
v  5.6750 70.0504 62.2801
v  38.7053 100.0000 62.8128
v  -40.4360 100.0000 -54.9466
v  -40.4360 0.0000 -54.9466
v  -35.4363 0.0000 -54.8915
v  -35.4363 100.0000 -54.8915
# 48 vertices

vn 1.0000 0.0000 0.0037
vn -0.0037 0.0000 1.0000
vn -1.0000 0.0000 0.0053
vn -0.0053 0.0000 -1.0000
vn 0.0000 1.0000 -0.0000
vn 0.0000 -1.0000 -0.0000
vn -0.0161 0.0000 0.9999
vn -0.9999 0.0000 -0.0161
vn 0.0037 0.0000 -1.0000
vn -0.9999 0.0000 -0.0110
vn 0.0110 0.0000 -0.9999
vn 0.9999 0.0000 0.0161
vn 0.0053 0.0000 1.0000
vn 1.0000 0.0000 -0.0053
vn -1.0000 0.0000 -0.0037
vn 0.0161 0.0000 -0.9999
vn 0.0161 -0.0000 -0.9999
vn -0.0161 -0.0000 0.9999
vn 0.9999 0.0000 0.0110
vn -0.0110 0.0000 0.9999
# 20 vertex normals

vt 0.8999 1.5000 1.0918
vt 0.8574 1.5000 1.0916
vt 0.8999 0.5000 1.0918
vt 0.8574 0.5000 1.0916
vt 1.0916 1.5000 0.8574
vt 1.0317 1.5000 0.8575
vt 1.0916 0.5000 0.8574
vt 1.0317 0.5000 0.8575
vt 0.1425 1.5000 1.0317
vt 0.1003 1.5000 1.0313
vt 0.1425 0.5000 1.0317
vt 0.1003 0.5000 1.0313
vt -0.0313 1.5000 0.8997
vt -0.0918 1.5000 0.8999
vt -0.0313 0.5000 0.8997
vt -0.0918 0.5000 0.8999
vt 1.0916 0.8574 1.5000
vt 1.0918 0.8999 1.5000
vt 1.0317 0.8575 1.5000
vt 1.0313 0.8997 1.5000
vt -0.0916 0.8574 0.5000
vt -0.0317 0.8575 0.5000
vt -0.0918 0.8999 0.5000
vt -0.0313 0.8997 0.5000
vt 1.0866 1.5000 -0.1001
vt 1.0259 1.5000 -0.0994
vt 1.0866 0.5000 -0.1001
vt 1.0259 0.5000 -0.0994
vt 1.0994 1.5000 1.0259
vt 1.0573 1.5000 1.0269
vt 1.0994 0.5000 1.0259
vt 1.0573 0.5000 1.0269
vt -0.0269 1.5000 -0.0573
vt -0.0868 1.5000 -0.0574
vt -0.0269 0.5000 -0.0573
vt -0.0868 0.5000 -0.0574
vt -0.0574 1.5000 1.0868
vt -0.1001 1.5000 1.0866
vt -0.0574 0.5000 1.0868
vt -0.1001 0.5000 1.0866
vt 1.0259 -0.0994 1.5000
vt 1.0866 -0.1001 1.5000
vt 1.0269 -0.0573 1.5000
vt 1.0868 -0.0574 1.5000
vt -0.0259 -0.0994 0.5000
vt -0.0269 -0.0573 0.5000
vt -0.0866 -0.1001 0.5000
vt -0.0868 -0.0574 0.5000
vt 1.0888 1.5000 0.0918
vt 1.0469 1.5000 0.0925
vt 1.0888 0.5000 0.0918
vt 1.0469 0.5000 0.0925
vt 0.9075 1.5000 -0.0469
vt 0.8475 1.5000 -0.0473
vt 0.9075 0.5000 -0.0469
vt 0.8475 0.5000 -0.0473
vt -0.0473 1.5000 0.1525
vt -0.0895 1.5000 0.1515
vt -0.0473 0.5000 0.1525
vt -0.0895 0.5000 0.1515
vt 0.1515 1.5000 -0.0895
vt 0.0918 1.5000 -0.0888
vt 0.1515 0.5000 -0.0895
vt 0.0918 0.5000 -0.0888
vt 0.0925 -0.0469 1.5000
vt 0.0918 -0.0888 1.5000
vt 0.1525 -0.0473 1.5000
vt 0.1515 -0.0895 1.5000
vt 0.9075 -0.0469 0.5000
vt 0.8475 -0.0473 0.5000
vt 0.9082 -0.0888 0.5000
vt 0.8485 -0.0895 0.5000
vt 0.1223 1.5000 0.8541
vt 0.1223 0.5000 0.8541
vt 0.8777 0.8541 0.5000
vt 0.8780 0.8963 0.5000
vt 0.8780 0.5000 0.8963
vt 0.8780 1.5000 0.8963
vt 0.1220 0.8963 1.5000
vt 0.1223 0.8541 1.5000
vt 0.8575 1.5000 1.0317
vt 0.8575 0.5000 1.0317
vt 0.8997 1.5000 1.0313
vt 0.8997 0.5000 1.0313
vt 0.1459 0.5000 0.1223
vt 0.1459 1.5000 0.1223
vt 0.1037 0.5000 0.1220
vt 0.1037 1.5000 0.1220
vt 1.0269 0.5000 -0.0573
vt 1.0868 0.5000 -0.0574
vt 1.0269 1.5000 -0.0573
vt 1.0868 1.5000 -0.0574
vt -0.0916 1.5000 0.8574
vt -0.0916 0.5000 0.8574
vt -0.0317 1.5000 0.8575
vt -0.0317 0.5000 0.8575
vt 0.3389 0.5000 -0.0531
vt 0.3389 1.2005 -0.0531
vt -0.0572 0.5000 -0.0576
vt -0.0572 1.5000 -0.0576
vt 0.7080 1.2005 -0.0489
vt 0.8774 1.5000 -0.0470
vt 0.8774 0.5000 -0.0470
vt 0.7080 0.5000 -0.0489
vt 0.8774 -0.0470 0.5000
vt 0.7080 -0.0489 0.5000
vt 0.8783 -0.0891 0.5000
vt 0.7089 -0.0911 0.5000
vt 0.3389 -0.0531 0.5000
vt -0.0572 -0.0576 0.5000
vt 0.3398 -0.0953 0.5000
vt -0.0562 -0.0997 0.5000
vt 0.2911 0.5000 -0.0911
vt 0.2911 1.2005 -0.0911
vt 0.1217 0.5000 -0.0891
vt 0.1217 1.5000 -0.0891
vt 0.6602 1.2005 -0.0953
vt 1.0562 1.5000 -0.0997
vt 1.0562 0.5000 -0.0997
vt 1.0531 0.5000 0.6611
vt 1.0953 0.5000 0.6602
vt 1.0531 1.2005 0.6611
vt 1.0953 1.2005 0.6602
vt 0.6602 0.5000 -0.0953
vt 0.3389 -0.0531 1.2005
vt 0.3398 -0.0953 1.2005
vt 0.7080 -0.0489 1.2005
vt 0.7089 -0.0911 1.2005
vt -0.0489 1.2005 0.2920
vt -0.0911 1.2005 0.2911
vt -0.0489 0.5000 0.2920
vt -0.0911 0.5000 0.2911
vt -0.0576 0.5000 1.0572
vt -0.0576 1.5000 1.0572
vt -0.0997 0.5000 1.0562
vt -0.0997 1.5000 1.0562
vt 1.0572 -0.0576 1.5000
vt 0.1226 -0.0470 1.5000
vt 1.0562 -0.0997 1.5000
vt 0.1217 -0.0891 1.5000
vt 1.0470 1.5000 0.1226
vt 1.0470 0.5000 0.1226
vt 1.0891 1.5000 0.1217
vt 1.0891 0.5000 0.1217
vt 0.1069 1.5000 0.1072
vt 0.1069 0.5000 0.1072
vt 0.8928 0.8931 0.5000
vt 0.8328 0.8926 0.5000
vt 0.8926 0.5000 0.1672
vt 0.8926 1.5000 0.1672
vt 0.1672 0.8926 1.5000
vt 0.1072 0.8931 1.5000
vt 0.0925 1.5000 -0.0469
vt 0.0925 0.5000 -0.0469
vt 0.1525 1.5000 -0.0473
vt 0.1525 0.5000 -0.0473
vt 0.8328 1.5000 0.8926
vt 0.8328 0.5000 0.8926
vt 0.8928 1.5000 0.8931
vt 0.8928 0.5000 0.8931
# 160 texture coords

o Wall001
g Wall001
usemtl 01___Default
s off
f 1/1/1 2/2/1 3/3/1 
f 3/3/1 2/2/1 4/4/1 
f 2/5/2 5/6/2 4/7/2 
f 4/7/2 5/6/2 6/8/2 
f 5/9/3 7/10/3 6/11/3 
f 6/11/3 7/10/3 8/12/3 
f 7/13/4 1/14/4 8/15/4 
f 8/15/4 1/14/4 3/16/4 
f 2/17/5 1/18/5 5/19/5 
f 1/18/5 7/20/5 5/19/5 
f 4/21/6 6/22/6 3/23/6 
f 6/22/6 8/24/6 3/23/6 
f 9/25/7 10/26/7 11/27/7 
f 11/27/7 10/26/7 12/28/7 
f 10/29/8 13/30/8 12/31/8 
f 12/31/8 13/30/8 14/32/8 
f 13/33/9 15/34/9 14/35/9 
f 14/35/9 15/34/9 16/36/9 
f 15/37/1 9/38/1 16/39/1 
f 16/39/1 9/38/1 11/40/1 
f 10/41/5 9/42/5 13/43/5 
f 9/42/5 15/44/5 13/43/5 
f 12/45/6 14/46/6 11/47/6 
f 14/46/6 16/48/6 11/47/6 
f 17/49/10 18/50/10 19/51/10 
f 19/51/10 18/50/10 20/52/10 
f 18/53/11 21/54/11 20/55/11 
f 20/55/11 21/54/11 22/56/11 
f 21/57/12 23/58/12 22/59/12 
f 22/59/12 23/58/12 24/60/12 
f 23/61/7 17/62/7 24/63/7 
f 24/63/7 17/62/7 19/64/7 
f 18/65/5 17/66/5 21/67/5 
f 17/66/5 23/68/5 21/67/5 
f 20/69/6 22/70/6 19/71/6 
f 22/70/6 24/72/6 19/71/6 
s 1
f 5/6/13 25/73/13 6/8/13 
f 25/73/13 26/74/13 6/8/13 
s 2
f 6/22/6 26/75/6 8/24/6 
f 26/75/6 27/76/6 8/24/6 
s 1
f 8/15/4 27/77/4 7/13/4 
f 27/77/4 28/78/4 7/13/4 
s 2
f 7/20/5 28/79/5 5/19/5 
f 28/79/5 25/80/5 5/19/5 
s 4
f 5/81/14 6/82/14 7/83/14 
f 6/82/14 8/84/14 7/83/14 
f 26/85/3 25/86/3 27/87/3 
f 25/86/3 28/88/3 27/87/3 
s 1
f 13/30/15 5/9/15 14/32/15 
f 5/9/15 6/11/15 14/32/15 
s 2
f 14/46/6 6/22/6 16/48/6 
f 6/22/6 4/21/6 16/48/6 
s 1
f 16/39/1 4/4/1 15/37/1 
f 4/4/1 2/2/1 15/37/1 
s 2
f 15/44/5 2/17/5 13/43/5 
f 2/17/5 5/19/5 13/43/5 
s 4
f 14/89/2 16/90/2 13/91/2 
f 16/90/2 15/92/2 13/91/2 
f 2/93/9 4/94/9 5/95/9 
f 4/94/9 6/96/9 5/95/9 
s 1
f 29/97/16 30/98/17 31/99/16 
f 31/99/16 30/98/17 32/100/17 
f 30/98/17 33/101/17 32/100/17 
f 32/100/17 33/101/17 34/102/17 
f 33/101/17 35/103/16 34/102/17 
f 33/101/17 36/104/16 35/103/16 
s 2
f 35/105/6 36/106/6 37/107/6 
f 36/106/6 38/108/6 37/107/6 
f 29/109/6 31/110/6 39/111/6 
f 31/110/6 40/112/6 39/111/6 
s 1
f 38/113/7 41/114/18 37/115/7 
f 37/115/7 41/114/18 42/116/18 
f 41/114/18 43/117/7 42/116/18 
f 42/116/18 43/117/7 44/118/7 
f 43/117/7 40/119/7 44/118/7 
s 4
f 29/120/8 39/121/8 30/122/8 
f 30/122/8 39/121/8 43/123/8 
s 1
f 39/124/7 40/119/7 43/117/7 
s 2
f 30/125/6 43/126/6 33/127/6 
f 43/126/6 41/128/6 33/127/6 
s 4
f 33/129/12 41/130/12 36/131/12 
f 41/130/12 38/132/12 36/131/12 
f 31/133/12 32/134/12 40/135/12 
f 40/135/12 32/134/12 44/136/12 
s 2
f 32/137/5 34/138/5 44/139/5 
f 44/139/5 34/138/5 42/140/5 
s 4
f 34/141/8 35/142/8 42/143/8 
f 42/143/8 35/142/8 37/144/8 
s 1
f 18/50/10 45/145/10 20/52/10 
f 45/145/10 46/146/10 20/52/10 
s 2
f 20/69/6 46/147/6 22/70/6 
f 46/147/6 47/148/6 22/70/6 
s 1
f 22/59/19 47/149/19 21/57/19 
f 47/149/19 48/150/19 21/57/19 
s 2
f 21/67/5 48/151/5 18/65/5 
f 48/151/5 45/152/5 18/65/5 
s 4
f 18/153/20 20/154/20 21/155/20 
f 20/154/20 22/156/20 21/155/20 
f 48/157/11 47/158/11 45/159/11 
f 47/158/11 46/160/11 45/159/11 
# 100 faces

#
# object PivotDoor001
#

v  -23.8652 -0.0000 58.4212
v  -20.5916 12.0000 56.1226
v  -20.5916 66.0404 56.1226
v  -25.0145 0.0000 56.7844
v  -21.7409 66.0404 54.4858
v  -21.7409 12.0000 54.4858
v  -23.8652 70.0404 58.4212
v  -25.0145 70.0404 56.7845
v  1.3119 0.0000 40.7422
v  -1.9616 66.0404 43.0409
v  -1.9616 12.0000 43.0409
v  0.1626 0.0000 39.1055
v  -3.1110 12.0000 41.4041
v  -3.1110 66.0404 41.4041
v  1.3119 70.0404 40.7423
v  0.1626 70.0404 39.1055
v  -21.0944 12.0000 55.4065
v  -2.4645 12.0000 42.3248
v  -2.4645 66.0404 42.3248
v  -21.0944 66.0404 55.4065
v  -2.6081 12.0000 42.1202
v  -21.2381 12.0000 55.2019
v  -2.6081 66.0404 42.1202
v  -21.2381 66.0404 55.2019
v  -25.0306 -0.0000 57.7843
v  -27.0303 -0.0000 57.7521
v  -24.9984 0.0000 55.7846
v  -26.9981 0.0000 55.7523
v  -25.0306 70.0404 57.7843
v  -27.0303 70.0404 57.7521
v  -24.9984 70.0404 55.7846
v  -26.9981 70.0404 55.7523
v  7.7293 -0.0000 58.3127
v  5.7295 -0.0000 58.2804
v  7.7615 0.0000 56.3130
v  5.7618 0.0000 56.2807
v  7.7293 70.0404 58.3127
v  5.7295 70.0404 58.2805
v  7.7615 70.0404 56.3130
v  5.7618 70.0404 56.2807
v  7.7293 72.0404 58.3127
v  -27.0303 72.0404 57.7521
v  7.7615 72.0404 56.3130
v  -26.9981 72.0404 55.7523
# 44 vertices

vn 0.5747 -0.0000 0.8184
vn -0.5747 0.0000 -0.8184
vn -0.8184 -0.0000 0.5747
vn 0.8184 0.0000 -0.5747
vn 0.0000 -1.0000 -0.0000
vn -0.0000 1.0000 0.0000
vn -0.0161 -0.0000 0.9999
vn 0.9999 -0.0000 0.0161
vn 0.0161 0.0000 -0.9999
vn -0.9999 0.0000 -0.0161
# 10 vertex normals

vt 0.5000 0.5000 0.0000
vt 0.4350 0.4143 0.0000
vt 0.4350 0.0286 0.0000
vt 0.5650 0.0286 0.0000
vt 0.5650 0.4143 0.0000
vt 0.5000 0.0000 0.0000
vt 1.0000 0.0000 0.0000
vt 1.0000 0.5000 0.0000
vt 0.4143 0.0000 0.0000
vt 0.4143 0.5000 0.0000
vt 0.0286 0.5000 0.0000
vt 0.0286 0.0000 0.0000
vt 0.0000 0.5000 0.0000
vt 0.0650 0.0286 0.0000
vt 0.0650 0.4143 0.0000
vt 0.9350 0.4143 0.0000
vt 0.9350 0.0286 0.0000
vt 0.0000 0.0000 0.0000
vt 0.5857 0.0000 0.0000
vt 0.9714 0.0000 0.0000
vt 0.9714 0.5000 0.0000
vt 0.5857 0.5000 0.0000
vt 0.5650 0.0000 0.0000
vt 0.9350 0.0000 0.0000
vt 0.9350 0.5000 0.0000
vt 0.5650 0.5000 0.0000
vt 0.4350 0.0000 0.0000
vt 0.4350 0.5000 0.0000
vt 0.0650 0.5000 0.0000
vt 0.0650 0.0000 0.0000
vt 0.4121 0.3890 0.0000
vt -0.0879 0.3890 0.0000
vt -0.0879 -0.1110 0.0000
vt 0.4121 -0.1110 0.0000
vt 1.0879 0.3890 0.0000
vt 0.5879 0.3890 0.0000
vt 1.0879 -0.1110 0.0000
vt 0.5879 -0.1110 0.0000
vt 0.6110 0.2188 0.0000
vt 1.1110 0.2188 0.0000
vt 1.1110 0.2813 0.0000
vt 0.6110 0.2813 0.0000
vt -0.1110 0.2188 0.0000
vt 0.3890 0.2188 0.0000
vt -0.1110 0.2813 0.0000
vt 0.3890 0.2813 0.0000
vt 0.5879 0.2188 0.0000
vt 1.0879 0.2188 0.0000
vt 1.0879 0.2813 0.0000
vt 0.5879 0.2813 0.0000
vt -0.0879 0.2188 0.0000
vt 0.4121 0.2188 0.0000
vt -0.0879 0.2813 0.0000
vt 0.4121 0.2813 0.0000
vt 0.5000 0.0000 0.0000
vt 1.0000 0.0000 0.0000
vt 0.0000 0.0000 0.0000
vt -7.6910 0.0000 0.0000
vt -7.1910 0.0000 0.0000
vt -0.0143 0.0000 0.0000
vt 8.6910 0.0000 0.0000
vt 1.0143 0.0000 0.0000
# 62 texture coords

o PivotDoor001
g PivotDoor001
usemtl 02___Default
s off
f 49/161/21 50/162/21 51/163/21 
f 52/161/22 53/164/22 54/165/22 
f 51/163/21 55/166/21 49/161/21 
f 53/164/22 52/161/22 56/166/22 
f 52/161/23 49/166/23 55/167/23 
f 55/167/23 56/168/23 52/161/23 
f 50/169/24 54/170/24 53/171/24 
f 53/171/24 51/172/24 50/169/24 
f 57/173/21 58/174/21 59/175/21 
f 60/168/22 61/176/22 62/177/22 
f 58/174/21 57/173/21 63/178/21 
f 62/177/22 64/167/22 60/168/22 
f 57/166/24 60/161/24 64/173/24 
f 64/173/24 63/178/24 57/166/24 
f 59/179/23 58/180/23 62/181/23 
f 62/181/23 61/182/23 59/179/23 
f 49/161/21 59/175/21 50/162/21 
f 52/161/22 54/165/22 61/176/22 
f 59/175/21 49/161/21 57/173/21 
f 61/176/22 60/168/22 52/161/22 
f 49/166/25 52/161/25 60/173/25 
f 60/173/25 57/178/25 49/166/25 
f 50/183/26 59/184/26 61/185/26 
f 61/185/26 54/186/26 50/183/26 
f 55/166/21 51/163/21 58/174/21 
f 56/166/22 62/177/22 53/164/22 
f 58/174/21 63/178/21 55/166/21 
f 62/177/22 56/166/22 64/167/22 
f 55/166/26 63/167/26 64/168/26 
f 64/168/26 56/161/26 55/166/26 
f 51/187/25 53/188/25 62/189/25 
f 62/189/25 58/190/25 51/187/25 
f 65/191/21 66/192/21 67/193/21 
f 67/193/21 68/194/21 65/191/21 
f 69/195/22 70/196/22 71/197/22 
f 72/198/22 71/197/22 70/196/22 
f 65/199/23 68/200/23 72/201/23 
f 72/201/23 70/202/23 65/199/23 
f 67/203/24 66/204/24 71/205/24 
f 69/206/24 71/205/24 66/204/24 
f 68/207/26 67/208/26 71/209/26 
f 71/209/26 72/210/26 68/207/26 
f 66/211/25 65/212/25 69/213/25 
f 70/214/25 69/213/25 65/212/25 
f 73/215/25 74/216/25 75/215/25 
f 76/216/25 75/215/25 74/216/25 
f 74/215/27 73/215/27 77/217/27 
f 77/217/27 78/217/27 74/215/27 
f 73/215/28 75/215/28 79/217/28 
f 79/217/28 77/217/28 73/215/28 
f 75/215/29 76/215/29 80/217/29 
f 80/217/29 79/217/29 75/215/29 
f 76/215/30 74/215/30 78/216/30 
f 78/216/30 80/216/30 76/215/30 
f 81/218/25 82/219/25 83/218/25 
f 84/219/25 83/218/25 82/219/25 
f 82/215/27 81/215/27 85/217/27 
f 85/217/27 86/217/27 82/215/27 
f 81/215/28 83/215/28 87/217/28 
f 87/217/28 85/217/28 81/215/28 
f 83/215/29 84/215/29 88/217/29 
f 88/217/29 87/217/29 83/215/29 
f 84/215/30 82/215/30 86/216/30 
f 86/216/30 88/216/30 84/215/30 
f 78/217/27 85/217/27 89/220/27 
f 89/220/27 90/220/27 78/217/27 
f 90/217/26 89/221/26 91/221/26 
f 91/221/26 92/217/26 90/217/26 
f 80/217/29 92/220/29 91/220/29 
f 91/220/29 87/217/29 80/217/29 
f 78/216/25 80/216/25 87/218/25 
f 87/218/25 85/218/25 78/216/25 
f 78/216/30 90/222/30 92/222/30 
f 92/222/30 80/216/30 78/216/30 
f 89/220/28 85/217/28 87/217/28 
f 87/217/28 91/220/28 89/220/28 
# 76 faces

#
# object Plane001
#

v  -40.2199 0.0000 31.9776
v  -40.2199 0.0000 60.9553
v  -20.1100 0.0000 31.9776
v  -20.1100 0.0000 60.9553
v  0.0000 0.0000 31.9776
v  0.0000 0.0000 60.9553
v  20.1100 0.0000 31.9776
v  20.1100 0.0000 60.9553
v  40.2199 0.0000 31.9776
v  40.2199 0.0000 60.9553
v  -40.2199 0.0000 3.0000
v  -20.1100 0.0000 3.0000
v  0.0000 0.0000 3.0000
v  20.1100 0.0000 3.0000
v  40.2199 0.0000 3.0000
v  -40.2199 0.0000 -25.9776
v  -20.1100 0.0000 -25.9776
v  0.0000 0.0000 -25.9776
v  20.1100 0.0000 -25.9776
v  40.2199 0.0000 -25.9776
v  -40.2199 0.0000 -54.9553
v  -20.1100 0.0000 -54.9553
v  0.0000 0.0000 -54.9553
v  20.1100 0.0000 -54.9553
v  40.2199 0.0000 -54.9553
# 25 vertices

vn 0.0000 1.0000 -0.0000
# 1 vertex normals

vt 0.0000 0.2500 0.0000
vt 0.0000 0.0000 0.0000
vt 0.2500 0.2500 0.0000
vt 0.2500 0.0000 0.0000
vt 0.5000 0.2500 0.0000
vt 0.5000 0.0000 0.0000
vt 0.7500 0.2500 0.0000
vt 0.7500 0.0000 0.0000
vt 1.0000 0.2500 0.0000
vt 1.0000 0.0000 0.0000
vt 0.0000 0.5000 0.0000
vt 0.2500 0.5000 0.0000
vt 0.5000 0.5000 0.0000
vt 0.7500 0.5000 0.0000
vt 1.0000 0.5000 0.0000
vt 0.0000 0.7500 0.0000
vt 0.2500 0.7500 0.0000
vt 0.5000 0.7500 0.0000
vt 0.7500 0.7500 0.0000
vt 1.0000 0.7500 0.0000
vt 0.0000 1.0000 0.0000
vt 0.2500 1.0000 0.0000
vt 0.5000 1.0000 0.0000
vt 0.7500 1.0000 0.0000
vt 1.0000 1.0000 0.0000
# 25 texture coords

o Plane001
g Plane001
usemtl 03___Default
s 1
f 93/223/31 94/224/31 95/225/31 
f 96/226/31 95/225/31 94/224/31 
f 95/225/31 96/226/31 97/227/31 
f 98/228/31 97/227/31 96/226/31 
f 97/227/31 98/228/31 99/229/31 
f 100/230/31 99/229/31 98/228/31 
f 99/229/31 100/230/31 101/231/31 
f 102/232/31 101/231/31 100/230/31 
f 103/233/31 93/223/31 104/234/31 
f 95/225/31 104/234/31 93/223/31 
f 104/234/31 95/225/31 105/235/31 
f 97/227/31 105/235/31 95/225/31 
f 105/235/31 97/227/31 106/236/31 
f 99/229/31 106/236/31 97/227/31 
f 106/236/31 99/229/31 107/237/31 
f 101/231/31 107/237/31 99/229/31 
f 108/238/31 103/233/31 109/239/31 
f 104/234/31 109/239/31 103/233/31 
f 109/239/31 104/234/31 110/240/31 
f 105/235/31 110/240/31 104/234/31 
f 110/240/31 105/235/31 111/241/31 
f 106/236/31 111/241/31 105/235/31 
f 111/241/31 106/236/31 112/242/31 
f 107/237/31 112/242/31 106/236/31 
f 113/243/31 108/238/31 114/244/31 
f 109/239/31 114/244/31 108/238/31 
f 114/244/31 109/239/31 115/245/31 
f 110/240/31 115/245/31 109/239/31 
f 115/245/31 110/240/31 116/246/31 
f 111/241/31 116/246/31 110/240/31 
f 116/246/31 111/241/31 117/247/31 
f 112/242/31 117/247/31 111/241/31 
# 32 faces

#
# object Plane002
#

v  -40.7633 101.0000 31.7500
v  -40.7633 101.0000 60.5000
v  -20.0133 101.0000 31.7500
v  -20.0133 101.0000 60.5000
v  0.7367 101.0000 31.7500
v  0.7367 101.0000 60.5000
v  21.4867 101.0000 31.7500
v  21.4867 101.0000 60.5000
v  42.2367 101.0000 31.7500
v  42.2367 101.0000 60.5000
v  -40.7633 101.0000 3.0000
v  -20.0133 101.0000 3.0000
v  0.7367 101.0000 3.0000
v  21.4867 101.0000 3.0000
v  42.2367 101.0000 3.0000
v  -40.7633 101.0000 -25.7500
v  -20.0133 101.0000 -25.7500
v  0.7367 101.0000 -25.7500
v  21.4867 101.0000 -25.7500
v  42.2367 101.0000 -25.7500
v  -40.7633 101.0000 -54.5000
v  -20.0133 101.0000 -54.5000
v  0.7367 101.0000 -54.5000
v  21.4867 101.0000 -54.5000
v  42.2367 101.0000 -54.5000
# 25 vertices

vn 0.0000 1.0000 -0.0000
# 1 vertex normals

vt 0.0000 0.2500 0.0000
vt 0.0000 0.0000 0.0000
vt 0.2500 0.2500 0.0000
vt 0.2500 0.0000 0.0000
vt 0.5000 0.2500 0.0000
vt 0.5000 0.0000 0.0000
vt 0.7500 0.2500 0.0000
vt 0.7500 0.0000 0.0000
vt 1.0000 0.2500 0.0000
vt 1.0000 0.0000 0.0000
vt 0.0000 0.5000 0.0000
vt 0.2500 0.5000 0.0000
vt 0.5000 0.5000 0.0000
vt 0.7500 0.5000 0.0000
vt 1.0000 0.5000 0.0000
vt 0.0000 0.7500 0.0000
vt 0.2500 0.7500 0.0000
vt 0.5000 0.7500 0.0000
vt 0.7500 0.7500 0.0000
vt 1.0000 0.7500 0.0000
vt 0.0000 1.0000 0.0000
vt 0.2500 1.0000 0.0000
vt 0.5000 1.0000 0.0000
vt 0.7500 1.0000 0.0000
vt 1.0000 1.0000 0.0000
# 25 texture coords

o Plane002
g Plane002
usemtl 01___Default
s 1
f 118/248/32 119/249/32 120/250/32 
f 121/251/32 120/250/32 119/249/32 
f 120/250/32 121/251/32 122/252/32 
f 123/253/32 122/252/32 121/251/32 
f 122/252/32 123/253/32 124/254/32 
f 125/255/32 124/254/32 123/253/32 
f 124/254/32 125/255/32 126/256/32 
f 127/257/32 126/256/32 125/255/32 
f 128/258/32 118/248/32 129/259/32 
f 120/250/32 129/259/32 118/248/32 
f 129/259/32 120/250/32 130/260/32 
f 122/252/32 130/260/32 120/250/32 
f 130/260/32 122/252/32 131/261/32 
f 124/254/32 131/261/32 122/252/32 
f 131/261/32 124/254/32 132/262/32 
f 126/256/32 132/262/32 124/254/32 
f 133/263/32 128/258/32 134/264/32 
f 129/259/32 134/264/32 128/258/32 
f 134/264/32 129/259/32 135/265/32 
f 130/260/32 135/265/32 129/259/32 
f 135/265/32 130/260/32 136/266/32 
f 131/261/32 136/266/32 130/260/32 
f 136/266/32 131/261/32 137/267/32 
f 132/262/32 137/267/32 131/261/32 
f 138/268/32 133/263/32 139/269/32 
f 134/264/32 139/269/32 133/263/32 
f 139/269/32 134/264/32 140/270/32 
f 135/265/32 140/270/32 134/264/32 
f 140/270/32 135/265/32 141/271/32 
f 136/266/32 141/271/32 135/265/32 
f 141/271/32 136/266/32 142/272/32 
f 137/267/32 142/272/32 136/266/32 
# 32 faces

