# 3ds Max Wavefront OBJ Exporter v0.99 - (c)2007 guruware
# File Created: 04.12.2021 22:55:48

mtllib xbox.mtl

#
# object Box001
#

v  -20.2487 0.0000 -10.1068
v  19.6209 0.0000 -10.1068
v  19.6209 0.0000 6.9444
v  -20.2487 0.0000 6.9444
v  -20.2487 10.0000 8.5909
v  19.6209 10.0000 8.5909
v  19.6209 10.0000 -10.1068
v  -20.2487 10.0000 -10.1068
v  19.6209 1.6466 8.5909
v  -20.2487 1.6466 8.5909
v  19.6209 0.8233 7.7677
v  -20.2487 0.8233 7.7677
# 12 vertices

vn 0.0000 -1.0000 -0.0000
vn 0.0000 1.0000 -0.0000
vn 0.0000 0.0000 1.0000
vn 1.0000 0.0000 -0.0000
vn 0.0000 0.0000 -1.0000
vn -1.0000 0.0000 -0.0000
vn 0.0000 -0.7071 0.7071
# 7 vertex normals

vt 1.0000 1.0000 0.0000
vt 0.0000 1.0000 0.0000
vt 0.0000 0.0881 0.0000
vt 1.0000 0.0881 0.0000
vt 0.0000 0.0000 0.0000
vt 1.0000 0.0000 0.0000
vt 1.0000 0.1647 0.0000
vt 0.0000 0.1647 0.0000
vt 0.0881 0.0000 0.0000
vt 0.9119 0.0000 0.0000
# 10 texture coords

o Box001
g Box001
usemtl 01___Default
s 1
f 1/1/1 2/2/1 3/3/1 
f 3/3/1 4/4/1 1/1/1 
f 5/5/2 6/6/2 7/1/2 
f 7/1/2 8/2/2 5/5/2 
s 2
f 9/7/3 6/1/3 5/2/3 
f 5/2/3 10/8/3 9/7/3 
s 4
f 11/5/4 3/9/4 2/6/4 
f 11/5/4 2/6/4 7/1/4 
f 11/5/4 7/1/4 6/2/4 
f 9/8/4 11/5/4 6/2/4 
s 2
f 2/5/5 1/6/5 8/1/5 
f 8/1/5 7/2/5 2/5/5 
s 4
f 1/5/6 4/10/6 12/6/6 
f 12/6/6 10/7/6 5/1/6 
f 12/6/6 5/1/6 8/2/6 
f 1/5/6 12/6/6 8/2/6 
s 8
f 4/4/7 3/3/7 11/5/7 
f 11/5/7 12/6/7 4/4/7 
f 9/7/7 10/8/7 12/5/7 
f 12/5/7 11/6/7 9/7/7 
# 20 faces

#
# object Plane001
#

v  11.4777 3.4312 9.0000
v  11.4777 1.8625 9.0000
v  13.2400 3.4312 9.0000
v  13.2400 1.8625 9.0000
v  15.0022 3.4312 9.0000
v  15.0022 1.8625 9.0000
v  16.7645 3.4312 9.0000
v  16.7645 1.8625 9.0000
v  18.5267 3.4312 9.0000
v  18.5267 1.8625 9.0000
v  11.4777 5.0000 9.0000
v  13.2400 5.0000 9.0000
v  15.0022 5.0000 9.0000
v  16.7645 5.0000 9.0000
v  18.5267 5.0000 9.0000
v  11.4777 6.5688 9.0000
v  13.2400 6.5688 9.0000
v  15.0022 6.5688 9.0000
v  16.7645 6.5688 9.0000
v  18.5267 6.5688 9.0000
v  11.4777 8.1375 9.0000
v  13.2400 8.1375 9.0000
v  15.0022 8.1375 9.0000
v  16.7645 8.1375 9.0000
v  18.5267 8.1375 9.0000
# 25 vertices

vn 0.0000 -0.0000 1.0000
# 1 vertex normals

vt 0.0000 0.2500 0.0000
vt 0.0000 0.0000 0.0000
vt 0.2500 0.2500 0.0000
vt 0.2500 0.0000 0.0000
vt 0.5000 0.2500 0.0000
vt 0.5000 0.0000 0.0000
vt 0.7500 0.2500 0.0000
vt 0.7500 0.0000 0.0000
vt 1.0000 0.2500 0.0000
vt 1.0000 0.0000 0.0000
vt 0.0000 0.5000 0.0000
vt 0.2500 0.5000 0.0000
vt 0.5000 0.5000 0.0000
vt 0.7500 0.5000 0.0000
vt 1.0000 0.5000 0.0000
vt 0.0000 0.7500 0.0000
vt 0.2500 0.7500 0.0000
vt 0.5000 0.7500 0.0000
vt 0.7500 0.7500 0.0000
vt 1.0000 0.7500 0.0000
vt 0.0000 1.0000 0.0000
vt 0.2500 1.0000 0.0000
vt 0.5000 1.0000 0.0000
vt 0.7500 1.0000 0.0000
vt 1.0000 1.0000 0.0000
# 25 texture coords

o Plane001
g Plane001
usemtl 02___Default
s 1
f 13/11/8 14/12/8 15/13/8 
f 16/14/8 15/13/8 14/12/8 
f 15/13/8 16/14/8 17/15/8 
f 18/16/8 17/15/8 16/14/8 
f 17/15/8 18/16/8 19/17/8 
f 20/18/8 19/17/8 18/16/8 
f 19/17/8 20/18/8 21/19/8 
f 22/20/8 21/19/8 20/18/8 
f 23/21/8 13/11/8 24/22/8 
f 15/13/8 24/22/8 13/11/8 
f 24/22/8 15/13/8 25/23/8 
f 17/15/8 25/23/8 15/13/8 
f 25/23/8 17/15/8 26/24/8 
f 19/17/8 26/24/8 17/15/8 
f 26/24/8 19/17/8 27/25/8 
f 21/19/8 27/25/8 19/17/8 
f 28/26/8 23/21/8 29/27/8 
f 24/22/8 29/27/8 23/21/8 
f 29/27/8 24/22/8 30/28/8 
f 25/23/8 30/28/8 24/22/8 
f 30/28/8 25/23/8 31/29/8 
f 26/24/8 31/29/8 25/23/8 
f 31/29/8 26/24/8 32/30/8 
f 27/25/8 32/30/8 26/24/8 
f 33/31/8 28/26/8 34/32/8 
f 29/27/8 34/32/8 28/26/8 
f 34/32/8 29/27/8 35/33/8 
f 30/28/8 35/33/8 29/27/8 
f 35/33/8 30/28/8 36/34/8 
f 31/29/8 36/34/8 30/28/8 
f 36/34/8 31/29/8 37/35/8 
f 32/30/8 37/35/8 31/29/8 
# 32 faces

#
# object Plane002
#

v  -17.3387 4.6843 9.0000
v  -17.3387 4.3685 9.0000
v  -13.6693 4.6843 9.0000
v  -13.6693 4.3685 9.0000
v  -10.0000 4.6843 9.0000
v  -10.0000 4.3685 9.0000
v  -6.3307 4.6843 9.0000
v  -6.3307 4.3685 9.0000
v  -2.6613 4.6843 9.0000
v  -2.6613 4.3685 9.0000
v  -17.3387 5.0000 9.0000
v  -13.6693 5.0000 9.0000
v  -10.0000 5.0000 9.0000
v  -6.3307 5.0000 9.0000
v  -2.6613 5.0000 9.0000
v  -17.3387 5.3157 9.0000
v  -13.6693 5.3157 9.0000
v  -10.0000 5.3157 9.0000
v  -6.3307 5.3157 9.0000
v  -2.6613 5.3157 9.0000
v  -17.3387 5.6315 9.0000
v  -13.6693 5.6315 9.0000
v  -10.0000 5.6315 9.0000
v  -6.3307 5.6315 9.0000
v  -2.6613 5.6315 9.0000
# 25 vertices

vn 0.0000 -0.0000 1.0000
# 1 vertex normals

vt 0.0000 0.2500 0.0000
vt 0.0000 0.0000 0.0000
vt 0.2500 0.2500 0.0000
vt 0.2500 0.0000 0.0000
vt 0.5000 0.2500 0.0000
vt 0.5000 0.0000 0.0000
vt 0.7500 0.2500 0.0000
vt 0.7500 0.0000 0.0000
vt 1.0000 0.2500 0.0000
vt 1.0000 0.0000 0.0000
vt 0.0000 0.5000 0.0000
vt 0.2500 0.5000 0.0000
vt 0.5000 0.5000 0.0000
vt 0.7500 0.5000 0.0000
vt 1.0000 0.5000 0.0000
vt 0.0000 0.7500 0.0000
vt 0.2500 0.7500 0.0000
vt 0.5000 0.7500 0.0000
vt 0.7500 0.7500 0.0000
vt 1.0000 0.7500 0.0000
vt 0.0000 1.0000 0.0000
vt 0.2500 1.0000 0.0000
vt 0.5000 1.0000 0.0000
vt 0.7500 1.0000 0.0000
vt 1.0000 1.0000 0.0000
# 25 texture coords

o Plane002
g Plane002
usemtl 03___Default
s 1
f 38/36/9 39/37/9 40/38/9 
f 41/39/9 40/38/9 39/37/9 
f 40/38/9 41/39/9 42/40/9 
f 43/41/9 42/40/9 41/39/9 
f 42/40/9 43/41/9 44/42/9 
f 45/43/9 44/42/9 43/41/9 
f 44/42/9 45/43/9 46/44/9 
f 47/45/9 46/44/9 45/43/9 
f 48/46/9 38/36/9 49/47/9 
f 40/38/9 49/47/9 38/36/9 
f 49/47/9 40/38/9 50/48/9 
f 42/40/9 50/48/9 40/38/9 
f 50/48/9 42/40/9 51/49/9 
f 44/42/9 51/49/9 42/40/9 
f 51/49/9 44/42/9 52/50/9 
f 46/44/9 52/50/9 44/42/9 
f 53/51/9 48/46/9 54/52/9 
f 49/47/9 54/52/9 48/46/9 
f 54/52/9 49/47/9 55/53/9 
f 50/48/9 55/53/9 49/47/9 
f 55/53/9 50/48/9 56/54/9 
f 51/49/9 56/54/9 50/48/9 
f 56/54/9 51/49/9 57/55/9 
f 52/50/9 57/55/9 51/49/9 
f 58/56/9 53/51/9 59/57/9 
f 54/52/9 59/57/9 53/51/9 
f 59/57/9 54/52/9 60/58/9 
f 55/53/9 60/58/9 54/52/9 
f 60/58/9 55/53/9 61/59/9 
f 56/54/9 61/59/9 55/53/9 
f 61/59/9 56/54/9 62/60/9 
f 57/55/9 62/60/9 56/54/9 
# 32 faces

